<svg width="73" height="61" viewBox="0 0 73 61" fill="none" xmlns="http://www.w3.org/2000/svg">
<path d="M12.7646 49.332H14.6688C14.6688 51.1159 14.6688 52.9061 14.6688 54.6963C15.1703 53.7885 15.7923 52.9696 16.3572 52.0999H18.6613L16.5032 54.5947C17.341 55.8009 18.1662 57.0197 19.0104 58.2259C18.2233 58.2259 17.4426 58.2259 16.6555 58.2259L15.183 55.6866C15.0179 55.8834 14.8592 56.0738 14.7006 56.277V58.1814H12.7964L12.7646 49.332Z" fill="#35BBE3"/>
<path d="M48.2395 49.332H49.7946C49.7946 51.8713 49.7946 54.3535 49.7946 56.861C49.7946 57.3181 49.7946 57.7688 49.8391 58.2259H48.4617C48.4617 57.9021 48.4617 57.5911 48.3855 57.2673C48.0601 57.7823 47.5497 58.1529 46.9593 58.3029C46.369 58.4529 45.7436 58.3708 45.2119 58.0735C44.8318 57.8451 44.5086 57.5332 44.2666 57.1615C44.0247 56.7898 43.8705 56.3679 43.8155 55.9278C43.6415 54.9742 43.8221 53.9898 44.3233 53.16C44.5382 52.8289 44.8262 52.5514 45.1651 52.3489C45.504 52.1464 45.8848 52.0243 46.2782 51.9919C46.6467 51.9389 47.0227 51.9851 47.3674 52.1257C47.7122 52.2662 48.0132 52.4962 48.2395 52.7918V49.332ZM46.5321 53.2171C46.3535 53.2609 46.1853 53.3395 46.0372 53.4484C45.8891 53.5574 45.7639 53.6945 45.6689 53.852C45.3799 54.3737 45.2707 54.976 45.3579 55.566C45.3753 55.8209 45.4466 56.0693 45.5669 56.2947C45.6873 56.5201 45.854 56.7174 46.0561 56.8737C46.3213 57.053 46.6401 57.1357 46.959 57.108C47.2779 57.0802 47.5776 56.9437 47.8079 56.7214C47.9692 56.5457 48.0912 56.3375 48.1656 56.1109C48.24 55.8843 48.2652 55.6444 48.2395 55.4073C48.3095 54.8805 48.2417 54.3447 48.0428 53.852C47.8955 53.5966 47.6688 53.3964 47.3973 53.2818C47.1257 53.1672 46.8241 53.1445 46.5385 53.2171H46.5321Z" fill="#35BBE3"/>
<path d="M19.9745 49.5162C20.2163 49.4127 20.488 49.4028 20.7366 49.4884C20.9853 49.5741 21.1933 49.7491 21.3201 49.9796C21.374 50.0925 21.405 50.215 21.4115 50.3399C21.4179 50.4649 21.3997 50.5899 21.3579 50.7078C21.316 50.8257 21.2514 50.9342 21.1676 51.0271C21.0838 51.12 20.9825 51.1955 20.8695 51.2492C20.6606 51.349 20.4257 51.3806 20.1979 51.3396C19.9701 51.2985 19.761 51.187 19.6 51.0207C19.5068 50.9034 19.4418 50.7662 19.41 50.6198C19.3782 50.4733 19.3805 50.3216 19.4166 50.1761C19.4528 50.0307 19.522 49.8956 19.6187 49.7811C19.7154 49.6667 19.8372 49.576 19.9745 49.5162Z" fill="#35BBE3"/>
<path d="M0 49.7764C2.16442 49.7764 4.32249 49.7764 6.48691 49.7764V51.3825H4.18285V58.2258H2.27867V51.3825H0V49.7764Z" fill="#35BBE3"/>
<path d="M27.2108 49.7764H29.1975C30.1051 52.595 31.0255 55.4009 31.9395 58.2195H30.2638C30.0163 57.4196 29.756 56.6197 29.5021 55.8199H26.8363C26.5887 56.6197 26.3475 57.4196 26.1063 58.2195H24.5068L27.2108 49.7764ZM28.1311 51.046C27.8645 52.2776 27.4964 53.471 27.0902 54.6708H29.2356C28.9055 53.5789 28.512 52.5061 28.2454 51.3888C28.2238 51.2656 28.1854 51.146 28.1311 51.0333V51.046Z" fill="#35BBE3"/>
<path d="M6.41755 52.4998C7.23713 52.0981 8.14707 51.9166 9.05802 51.9729C9.41515 51.9678 9.76935 52.0381 10.0975 52.1792C10.4256 52.3203 10.7203 52.5291 10.9622 52.7919C11.3839 53.4114 11.5728 54.1603 11.4954 54.9058C11.4583 56.0112 11.488 57.1178 11.5842 58.2196C11.013 58.2196 10.4354 58.2196 9.86412 58.2196C9.82604 58.0101 9.78796 57.7942 9.74353 57.5848C9.34799 58.0265 8.79742 58.2987 8.20633 58.3448C7.61524 58.3909 7.02913 58.2074 6.56989 57.8323C6.37446 57.6336 6.22259 57.3963 6.12396 57.1356C6.02532 56.8749 5.98209 56.5965 5.99702 56.3182C6.01195 56.0399 6.08471 55.7677 6.21067 55.5191C6.33663 55.2704 6.51301 55.0507 6.72857 54.8741C7.57723 54.3173 8.58504 54.0541 9.59754 54.125C9.6137 53.9463 9.56573 53.7677 9.46222 53.6211C9.35872 53.4745 9.20643 53.3696 9.03263 53.3251C8.25411 53.1697 7.44562 53.3052 6.76031 53.706C6.65875 53.3251 6.53181 52.9061 6.41755 52.4998ZM8.15671 55.6739C8.06414 55.7477 7.98939 55.8413 7.93801 55.9479C7.88663 56.0545 7.85995 56.1714 7.85995 56.2897C7.85995 56.4081 7.88663 56.5249 7.93801 56.6315C7.98939 56.7381 8.06414 56.8318 8.15671 56.9055C8.39233 57.0286 8.66664 57.055 8.92143 56.9792C9.17622 56.9033 9.39142 56.7312 9.52137 56.4992C9.73083 56.1437 9.61658 55.7057 9.64832 55.3184C9.12727 55.2705 8.60455 55.3906 8.15671 55.6612V55.6739Z" fill="#35BBE3"/>
<path d="M33.8503 52.3981C34.3587 52.1482 34.9135 52.0067 35.4795 51.9827C36.0455 51.9586 36.6103 52.0525 37.1381 52.2584C37.0556 52.652 36.9541 53.0329 36.8652 53.4265C36.5623 53.281 36.2335 53.1971 35.8979 53.1797C35.5623 53.1622 35.2266 53.2116 34.9102 53.3249C34.6483 53.4366 34.4177 53.6107 34.2384 53.832C34.0592 54.0533 33.9368 54.3151 33.882 54.5945C33.7413 55.1918 33.8392 55.8205 34.1549 56.3466C34.2873 56.5442 34.4597 56.7118 34.6608 56.8387C34.862 56.9655 35.0875 57.0488 35.3228 57.083C35.8583 57.1564 36.4037 57.0863 36.9033 56.8799C36.9731 57.2608 37.0429 57.648 37.1191 58.0289C36.3624 58.3144 35.5458 58.4039 34.7452 58.2892C33.989 58.1797 33.3056 57.7787 32.841 57.1719C32.5848 56.7865 32.4074 56.3541 32.3192 55.8998C32.2309 55.4454 32.2336 54.978 32.3269 54.5247C32.4044 54.0784 32.5816 53.6554 32.8454 53.2871C33.1092 52.9189 33.4527 52.615 33.8503 52.3981Z" fill="#35BBE3"/>
<path d="M38.0388 52.5125C38.9073 52.0694 39.8929 51.9095 40.8569 52.0555C41.1953 52.0918 41.5196 52.2103 41.8017 52.4006C42.0838 52.5909 42.3151 52.8473 42.4755 53.1474C42.7616 53.9018 42.8639 54.7135 42.7738 55.5153C42.7431 56.4304 42.7728 57.3465 42.8627 58.2577H41.4663C41.4282 58.0228 41.3965 57.7879 41.3584 57.5594C40.9796 58.0188 40.438 58.3141 39.8467 58.3839C39.2555 58.4537 38.6601 58.2925 38.1847 57.9339C37.9846 57.7441 37.8272 57.5138 37.723 57.2584C37.6188 57.003 37.5702 56.7283 37.5804 56.4526C37.5906 56.177 37.6594 55.9066 37.7822 55.6596C37.905 55.4126 38.079 55.1946 38.2926 55.0201C39.166 54.4369 40.2099 54.1642 41.2568 54.2456C41.2717 53.9766 41.2005 53.7098 41.0537 53.4838C40.9401 53.3537 40.7995 53.2499 40.6416 53.1797C40.4837 53.1095 40.3124 53.0747 40.1397 53.0775C39.5186 53.0571 38.9045 53.2134 38.3688 53.5283L38.0388 52.5125ZM39.7525 55.4772C39.6131 55.5313 39.488 55.6166 39.3868 55.7267C39.2855 55.8367 39.2109 55.9685 39.1686 56.112C39.11 56.2998 39.1149 56.5017 39.1826 56.6865C39.2503 56.8712 39.377 57.0285 39.5431 57.134C39.8437 57.2559 40.1796 57.2581 40.4818 57.14C40.784 57.0219 41.0295 56.7927 41.168 56.4992C41.2716 56.0845 41.3016 55.6547 41.2568 55.2296C40.7436 55.2058 40.2311 55.2902 39.7525 55.4772Z" fill="#35BBE3"/>
<path d="M52.0916 52.4996C52.4337 52.2676 52.8198 52.1084 53.226 52.032C53.6322 51.9555 54.0498 51.9634 54.4528 52.0552C55.0247 52.1741 55.5278 52.5111 55.8555 52.9947C56.3363 53.7761 56.5146 54.7064 56.357 55.6102H52.2947C52.3 55.9231 52.4006 56.227 52.5832 56.4811C52.7659 56.7352 53.0217 56.9275 53.3166 57.0322C54.1549 57.2608 55.0442 57.2164 55.8555 56.9052C55.9317 57.2607 56.0015 57.6162 56.084 57.9717C55.2752 58.2796 54.4078 58.4033 53.5451 58.3336C53.1423 58.3102 52.7484 58.2053 52.3873 58.0252C52.0262 57.8452 51.7053 57.5938 51.4442 57.2861C50.9198 56.5508 50.7055 55.6388 50.8475 54.7468C50.8895 54.3069 51.0217 53.8803 51.2357 53.4937C51.4497 53.1071 51.7411 52.7687 52.0916 52.4996ZM52.866 53.3248C52.5417 53.635 52.341 54.0523 52.3011 54.4993C53.1897 54.4993 54.0783 54.4993 54.9669 54.4993C54.9827 54.2589 54.9408 54.0183 54.8448 53.7975C54.7487 53.5766 54.6013 53.3819 54.4147 53.2296C54.1802 53.078 53.9034 53.0055 53.6247 53.0226C53.346 53.0398 53.0801 53.1457 52.866 53.3248Z" fill="#35BBE3"/>
<path d="M59.7914 52.1508C60.1185 52.0071 60.477 51.9497 60.8326 51.9841C61.1882 52.0186 61.529 52.1437 61.8225 52.3476C62.0735 52.5473 62.27 52.8071 62.3937 53.103C62.6985 52.616 63.1595 52.2467 63.7013 52.0556C64.0397 51.9444 64.4012 51.9229 64.7505 51.993C65.0997 52.063 65.4249 52.2224 65.6943 52.4555C66.1881 52.9994 66.45 53.7146 66.4243 54.4488V58.207H64.9073V54.7535C64.9329 54.3224 64.8072 53.8957 64.5518 53.5474C64.4068 53.3898 64.215 53.2831 64.0046 53.243C63.7943 53.203 63.5766 53.2318 63.3839 53.3252C63.1667 53.4395 62.986 53.6126 62.8625 53.8248C62.739 54.037 62.6778 54.2796 62.6857 54.525V58.207H61.1751C61.1751 57.0008 61.1751 55.7947 61.1751 54.5948C61.1946 54.1766 61.0512 53.767 60.7752 53.4522C60.5946 53.309 60.3709 53.2311 60.1405 53.2311C59.91 53.2311 59.6863 53.309 59.5057 53.4522C59.3342 53.5897 59.1952 53.7634 59.0986 53.961C59.002 54.1585 58.9503 54.375 58.9472 54.5948V58.2133H57.4365V54.6837C57.4365 53.8267 57.4365 52.9697 57.3857 52.1444H58.725C58.725 52.4491 58.7694 52.7793 58.7885 53.0586C59.0274 52.6649 59.3759 52.3494 59.7914 52.1508Z" fill="#35BBE3"/>
<path d="M19.4413 52.1001C20.076 52.1001 20.7108 52.1001 21.3455 52.1001V58.2261H19.4413C19.4413 56.182 19.435 54.1442 19.4413 52.1001Z" fill="#35BBE3"/>
<path d="M66.8936 52.1191H68.5946C69.0834 53.611 69.6356 55.0838 70.0545 56.601C70.4544 55.0965 70.905 53.611 71.324 52.1191H72.9933C72.439 53.63 71.8846 55.1409 71.3303 56.6518C71.0007 57.6003 70.5754 58.5128 70.0608 59.3752C69.8068 59.7944 69.4677 60.1556 69.0653 60.4355C68.663 60.7155 68.2064 60.9079 67.725 61.0003L67.3696 59.6735C67.7658 59.5671 68.1338 59.3749 68.4475 59.1106C68.7612 58.8462 69.0129 58.5161 69.1849 58.1436C69.2611 57.9722 69.1468 57.8008 69.0897 57.6421C68.3534 55.8011 67.6214 53.9601 66.8936 52.1191Z" fill="#35BBE3"/>
<path d="M16.3124 5.4343L54.2691 0.000223323C54.6212 -0.0361079 54.977 0.00159954 55.3136 0.110925C55.6503 0.22025 55.9604 0.398777 56.224 0.635045C56.4894 0.85811 56.7062 1.13315 56.8612 1.44321C57.0162 1.75328 57.1061 2.09181 57.1253 2.43794C57.1253 5.0661 57.1253 7.68791 57.1253 10.3161C50.3702 15.6036 44.5623 22.0005 39.9496 29.2338C39.2705 28.5989 38.5976 27.9641 37.9693 27.2722C39.0649 26.4466 39.875 25.299 40.286 23.9901C40.5246 23.2362 40.5618 22.4331 40.3939 21.6603C40.1779 20.7709 39.8382 19.9161 39.3847 19.121C39.0033 18.2456 38.4896 17.4342 37.8614 16.7151C37.5952 16.4216 37.2737 16.1837 36.9153 16.0148C36.557 15.846 36.1688 15.7495 35.7731 15.7311C35.3486 15.715 34.9258 15.7932 34.5351 15.96C34.1443 16.1269 33.7955 16.3782 33.5135 16.696C33.0781 17.2575 32.8534 17.9539 32.8788 18.664C32.8972 19.3726 33.0524 20.071 33.3358 20.7208C33.942 22.249 34.6811 23.7211 35.5446 25.1201C33.3611 26.3517 30.854 26.8468 28.3912 27.1896C23.6354 27.8268 18.805 27.6314 14.1162 26.6119C14.1162 20.3568 14.1162 14.1081 14.1162 7.86566C14.1471 7.26969 14.3824 6.70258 14.7824 6.25975C15.1824 5.81692 15.7227 5.52542 16.3124 5.4343ZM35.3542 11.2747C35.0243 11.6471 34.7349 12.0535 34.491 12.4872C34.4704 12.5339 34.4396 12.5754 34.4009 12.6087C34.3621 12.642 34.3165 12.6662 34.2672 12.6796C34.2179 12.693 34.1663 12.6952 34.116 12.6861C34.0658 12.677 34.0182 12.6567 33.9768 12.6268C33.5706 12.3792 33.1771 12.119 32.7708 11.8714C32.226 12.5745 31.7479 13.3268 31.3427 14.1187L33.285 15.3502C33.6305 14.9595 33.9347 14.534 34.1926 14.0806C34.2119 14.0407 34.2392 14.0053 34.2729 13.9766C34.3067 13.948 34.346 13.9267 34.3885 13.9141C34.4309 13.9016 34.4755 13.898 34.5194 13.9037C34.5633 13.9094 34.6055 13.9243 34.6433 13.9473L35.9128 14.6646C36.1276 14.4292 36.317 14.1717 36.4777 13.8965C36.7823 13.414 37.1124 12.9315 37.3472 12.4237C36.6935 12.0237 36.0333 11.6429 35.3605 11.2747H35.3542Z" fill="#35BBE3"/>
<path d="M60.3945 3.1743C60.5703 3.11382 60.7577 3.09524 60.9419 3.12005C61.1262 3.14486 61.302 3.21236 61.4555 3.31719C61.609 3.42201 61.736 3.56125 61.8261 3.72381C61.9163 3.88637 61.9673 4.06775 61.975 4.25349C61.975 16.1331 61.958 28.0085 61.9242 39.8797C61.9596 40.1132 61.9427 40.3517 61.8746 40.5779C61.8065 40.804 61.6891 41.0122 61.5307 41.1874C61.3048 41.405 61.0033 41.5266 60.6896 41.5266C60.376 41.5266 60.0745 41.405 59.8486 41.1874C60.1509 41.0981 60.4178 40.9168 60.6123 40.6688C60.8068 40.4208 60.9192 40.1184 60.934 39.8035V4.25349C60.9363 4.04367 60.8885 3.83633 60.7947 3.64866C60.7009 3.46098 60.5637 3.29837 60.3945 3.1743Z" fill="#35BBE3"/>
<path d="M41.3396 32.1095C45.6348 25.4064 50.9624 19.4245 57.1253 14.3853C57.1253 22.7141 57.1253 31.043 57.1253 39.3591C57.1427 39.8348 57.0633 40.3091 56.892 40.7532C56.7207 41.1973 56.4611 41.6021 56.1288 41.9429C55.7579 42.3431 55.2507 42.5899 54.707 42.6348H38.3374C36.3232 44.5858 34.309 46.5326 32.2948 48.4752L29.5972 42.6285H17.0423C16.7498 42.6476 16.4561 42.6348 16.1663 42.5904C15.7747 42.5113 15.4069 42.3422 15.0918 42.0965C14.7768 41.8509 14.5232 41.5353 14.351 41.1747C14.1463 40.7416 14.0608 40.2617 14.1035 39.7845C14.1035 36.3501 14.1035 32.9157 14.1035 29.475C19.2986 30.7276 24.6867 30.9647 29.9717 30.1733C32.5751 29.8299 35.0868 28.9825 37.3662 27.6784C38.5722 29.2528 39.9877 30.6621 41.3396 32.1095Z" fill="#35BBE3"/>
<path d="M35.4939 19.3621C35.8704 19.1305 36.2948 18.9878 36.7347 18.9449C37.1747 18.902 37.6186 18.96 38.0328 19.1145C38.328 19.1897 38.584 19.3733 38.75 19.6287C38.9043 19.9748 38.9268 20.3653 38.8135 20.7269C38.6248 21.5165 38.2798 22.2604 37.7991 22.9145C37.3183 23.5687 36.7115 24.12 36.0144 24.5359C35.6399 24.028 35.2781 23.5138 34.929 22.9869C34.5954 22.4275 34.4549 21.774 34.5291 21.1269C34.5461 20.7789 34.6417 20.4393 34.8088 20.1336C34.9759 19.828 35.2101 19.5642 35.4939 19.3621Z" fill="#35BBE3"/>
</svg>
